<svg width="38" height="24" viewBox="0 0 38 24" fill="none" xmlns="http://www.w3.org/2000/svg">
<path d="M35.3399 10.1744L34.3559 6.24437C34.6249 6.18731 34.8268 5.949 34.8268 5.66348V5.02982C34.8268 3.65403 33.7057 2.53477 32.3278 2.53477H27.8456V1.22774C27.8456 0.550735 27.294 0 26.6159 0H3.76824C3.09018 0 2.53858 0.550735 2.53858 1.22774V12.0001C2.53858 12.3282 2.80496 12.5942 3.1336 12.5942C3.46216 12.5942 3.72861 12.3282 3.72861 12.0001V1.22774C3.72861 1.20588 3.74635 1.18817 3.76824 1.18817H26.6159C26.6378 1.18817 26.6555 1.20588 26.6555 1.22774V12.0003C26.6555 12.3283 26.9219 12.5943 27.2505 12.5943C27.5791 12.5943 27.8455 12.3284 27.8455 12.0003V11.3268H34.8643C34.8649 11.3268 34.8654 11.327 34.8659 11.327C34.8665 11.327 34.867 11.3269 34.8675 11.3269C35.7312 11.3275 36.4646 11.8935 36.7165 12.6734H34.8663C34.5378 12.6734 34.2713 12.9394 34.2713 13.2675V14.5348C34.2713 15.5612 35.1076 16.3962 36.1356 16.3962H36.81V19.01H35.2542C34.7431 17.5367 33.3403 16.4753 31.693 16.4753C30.0457 16.4753 28.6429 17.5367 28.1319 19.01H27.8454V14.5347C27.8454 14.2067 27.579 13.9407 27.2504 13.9407C26.9218 13.9407 26.6553 14.2066 26.6553 14.5347V19.0099H14.3107C13.7996 17.5365 12.3968 16.4752 10.7495 16.4752C9.10221 16.4752 7.69932 17.5365 7.18832 19.0099H3.76824C3.74635 19.0099 3.72861 18.9922 3.72861 18.9703V17.6634H6.3069C6.63547 17.6634 6.90191 17.3974 6.90191 17.0693C6.90191 16.7412 6.63554 16.4752 6.3069 16.4752H0.595013C0.266446 16.4752 0 16.7412 0 17.0693C0 17.3974 0.266372 17.6634 0.595013 17.6634H2.53866V18.9703C2.53866 19.6473 3.09025 20.1981 3.76832 20.1981H6.98229C6.98214 20.2113 6.98125 20.2244 6.98125 20.2376C6.98125 22.3122 8.67174 24 10.7495 24C12.8273 24 14.5177 22.3122 14.5177 20.2376C14.5177 20.2243 14.5168 20.2113 14.5167 20.1981H27.9258C27.9257 20.2113 27.9248 20.2244 27.9248 20.2376C27.9248 22.3122 29.6153 24 31.693 24C33.7708 24 35.4613 22.3122 35.4613 20.2376C35.4613 20.2243 35.4604 20.2113 35.4602 20.1981H37.405C37.7336 20.1981 38 19.9321 38 19.604V13.2674C38.0001 11.7029 36.844 10.403 35.3399 10.1744ZM27.8456 3.72287H32.3278C33.0496 3.72287 33.6368 4.30917 33.6368 5.02982V5.0694H27.8456V3.72287ZM27.8456 10.1387V6.25749H33.1326L34.1044 10.1387H27.8456ZM10.7495 22.8121C9.32783 22.8121 8.1712 21.6573 8.1712 20.2378C8.1712 18.8183 9.32783 17.6635 10.7495 17.6635C12.1712 17.6635 13.3278 18.8183 13.3278 20.2378C13.3278 21.6573 12.1712 22.8121 10.7495 22.8121ZM31.6932 22.8121C30.2715 22.8121 29.1149 21.6573 29.1149 20.2378C29.1149 18.8183 30.2715 17.6635 31.6932 17.6635C33.1148 17.6635 34.2715 18.8183 34.2715 20.2378C34.2715 21.6573 33.1148 22.8121 31.6932 22.8121ZM36.8101 15.208H36.1358C35.7639 15.208 35.4614 14.906 35.4614 14.5347V13.8614H36.8101V15.208H36.8101Z" fill="#767676"/>
<path d="M10.7492 19.0103C10.0711 19.0103 9.51953 19.561 9.51953 20.238C9.51953 20.915 10.0711 21.4657 10.7492 21.4657C11.4273 21.4657 11.9788 20.915 11.9788 20.238C11.9788 19.561 11.4273 19.0103 10.7492 19.0103Z" fill="#767676"/>
<path d="M31.6926 19.0107C31.0145 19.0107 30.4629 19.5615 30.4629 20.2385C30.4629 20.9155 31.0145 21.4662 31.6926 21.4662C32.3706 21.4662 32.9222 20.9155 32.9222 20.2385C32.9222 19.5615 32.3706 19.0107 31.6926 19.0107Z" fill="#767676"/>
<path d="M24.7107 16.4746H15.8255C15.4969 16.4746 15.2305 16.7406 15.2305 17.0687C15.2305 17.3968 15.4968 17.6628 15.8255 17.6628H24.7107C25.0392 17.6628 25.3057 17.3968 25.3057 17.0687C25.3057 16.7406 25.0393 16.4746 24.7107 16.4746Z" fill="#767676"/>
<path d="M9.48044 13.9429H1.86454C1.53598 13.9429 1.26953 14.2088 1.26953 14.537C1.26953 14.8651 1.5359 15.131 1.86454 15.131H9.48044C9.80901 15.131 10.0755 14.8651 10.0755 14.537C10.0755 14.2088 9.80901 13.9429 9.48044 13.9429Z" fill="#767676"/>
<path d="M20.69 5.87854C20.4577 5.64659 20.0808 5.64659 19.8485 5.87861L14.5573 11.1615L11.8048 8.41325C11.5724 8.18123 11.1957 8.18123 10.9633 8.41325C10.731 8.64526 10.731 9.02134 10.9633 9.25336L14.1367 12.4217C14.2528 12.5378 14.4051 12.5957 14.5573 12.5957C14.7095 12.5957 14.8619 12.5378 14.978 12.4217L20.6899 6.71872C20.9223 6.48663 20.9223 6.11056 20.69 5.87854Z" fill="#767676"/>
</svg>
