<svg width="35" height="21" viewBox="0 0 35 21" fill="none" xmlns="http://www.w3.org/2000/svg">
<path fill-rule="evenodd" clip-rule="evenodd" d="M12.6367 18.728H22.0042V2.2417H12.6367V18.728Z" fill="#FF5F00"/>
<path fill-rule="evenodd" clip-rule="evenodd" d="M13.232 10.4849C13.232 7.1402 14.831 4.16133 17.3209 2.24172C15.4998 0.837625 13.2022 0 10.7048 0C4.79259 0 0 4.69431 0 10.4849C0 16.2754 4.79259 20.9697 10.7048 20.9697C13.2022 20.9697 15.4998 20.1321 17.3209 18.728C14.831 16.8081 13.232 13.8295 13.232 10.4849Z" fill="#EB001B"/>
<path fill-rule="evenodd" clip-rule="evenodd" d="M34.307 16.982V16.5751H34.1985L34.0739 16.855L33.949 16.5751H33.8404V16.982H33.9168V16.675L34.034 16.9398H34.1134L34.2306 16.6744V16.982H34.307ZM33.6198 16.982V16.6444H33.7589V16.5757H33.405V16.6444H33.5439V16.982H33.6198ZM34.6413 10.4849C34.6413 16.2754 29.8484 20.9697 23.9364 20.9697C21.439 20.9697 19.1412 20.1321 17.3203 18.728C19.8103 16.8084 21.4093 13.8295 21.4093 10.4849C21.4093 7.14049 19.8103 4.16162 17.3203 2.24172C19.1412 0.837625 21.439 0 23.9364 0C29.8484 0 34.6413 4.69431 34.6413 10.4849Z" fill="#F79E1B"/>
</svg>
