<svg width="8" height="14" viewBox="0 0 8 14" fill="none" xmlns="http://www.w3.org/2000/svg">
<path d="M0.668631 0.223774L0.221886 0.682364C0.0823678 0.82669 0.00550613 1.01871 0.00550613 1.22393C0.00550613 1.42904 0.0823678 1.62128 0.221886 1.76561L5.28308 6.99687L0.21627 12.2342C0.0767516 12.3783 1.70465e-08 12.5705 1.46006e-08 12.7756C1.21548e-08 12.9807 0.0767516 13.1731 0.21627 13.3173L0.660262 13.776C0.948988 14.0747 1.4193 14.0747 1.70802 13.776L7.76237 7.54037C7.90177 7.39627 8 7.20425 8 6.99733L8 6.99494C8 6.78971 7.90166 6.5977 7.76237 6.4536L1.72443 0.223774C1.58502 0.0794478 1.39364 0.000226991 1.19521 1.42527e-08C0.996669 1.18852e-08 0.807929 0.0794478 0.668631 0.223774Z" fill="#222222"/>
</svg>
