<svg width="40" height="40" viewBox="0 0 40 40" fill="none" xmlns="http://www.w3.org/2000/svg">
<circle cx="20" cy="20" r="20" fill="#60A8DE"/>
<path d="M10.3416 20.1904L14.7467 21.8421L16.4474 27.357C16.5589 27.7069 16.9911 27.8469 17.2699 27.609L19.7373 25.5934C19.9882 25.3834 20.3646 25.3694 20.6295 25.5654L25.0624 28.7987C25.3691 29.0227 25.8013 28.8547 25.871 28.4768L29.119 12.7998C29.2027 12.3939 28.8123 12.058 28.422 12.2119L10.3277 19.2246C9.88159 19.3926 9.89553 20.0224 10.3416 20.1904ZM16.1825 20.9742L24.7976 15.6413C24.9509 15.5433 25.1182 15.7533 24.9788 15.8792L17.8693 22.514C17.6184 22.7519 17.465 23.0598 17.4093 23.3958L17.1723 25.2014C17.1444 25.4394 16.8099 25.4674 16.7401 25.2294L15.8062 21.9401C15.6946 21.5761 15.848 21.1702 16.1825 20.9742Z" fill="white"/>
</svg>
