<svg width="40" height="40" viewBox="0 0 40 40" fill="none" xmlns="http://www.w3.org/2000/svg">
<circle cx="20" cy="20" r="20" fill="#665CAC"/>
<path d="M26.0624 19.5387C26.0895 17.0657 23.9883 14.7965 21.3855 14.484C21.3312 14.484 21.277 14.4704 21.2228 14.4568C21.0872 14.4296 20.9652 14.416 20.8297 14.416C20.301 14.416 20.1518 14.7965 20.1112 15.0139C20.0705 15.2313 20.1112 15.4079 20.2196 15.5574C20.3959 15.802 20.7077 15.8427 20.9517 15.8699C21.0195 15.8835 21.0872 15.8835 21.155 15.8971C23.4867 16.427 24.2865 17.2423 24.6661 19.5658C24.6797 19.6202 24.6797 19.6881 24.6797 19.7697C24.6932 20.0414 24.7339 20.6257 25.3575 20.6257C25.4117 20.6257 25.4659 20.6257 25.5202 20.6121C26.1031 20.5306 26.076 20.0007 26.076 19.7425C26.076 19.6745 26.076 19.6066 26.076 19.5523C26.0624 19.5658 26.0624 19.5523 26.0624 19.5387Z" fill="white"/>
<path d="M20.6662 13.587C20.734 13.587 20.8018 13.6006 20.856 13.6006C24.6925 14.1984 26.4548 16.0192 26.9429 19.8918C26.9564 19.9597 26.9564 20.0412 26.9564 20.1228C26.9564 20.4217 26.97 21.0603 27.6478 21.0739H27.6749C27.8918 21.0739 28.0545 21.006 28.1765 20.8837C28.3934 20.6663 28.3663 20.3402 28.3663 20.0684C28.3663 20.0005 28.3663 19.9461 28.3663 19.8918C28.4205 15.9241 24.9908 12.3233 21.0323 12.201C21.0187 12.201 21.0052 12.201 20.978 12.201C20.9645 12.201 20.9509 12.201 20.9374 12.201C20.8967 12.201 20.856 12.201 20.8018 12.1874C20.734 12.1874 20.6662 12.1738 20.5985 12.1738C19.9749 12.1738 19.8529 12.6222 19.8393 12.894C19.7715 13.519 20.368 13.5598 20.6662 13.587Z" fill="white"/>
<path d="M26.7523 24.9058C26.671 24.8378 26.5896 24.7835 26.5083 24.7155C26.0881 24.3758 25.6407 24.0633 25.2069 23.7644C25.112 23.6964 25.0307 23.6421 24.9358 23.5741C24.38 23.1801 23.8919 22.9899 23.4174 22.9899C22.7803 22.9899 22.238 23.3432 21.7771 24.0361C21.5738 24.3487 21.3298 24.4845 21.0315 24.4845C20.8553 24.4845 20.6519 24.4302 20.435 24.3351C18.6456 23.5198 17.3848 22.2833 16.6528 20.6392C16.3003 19.8511 16.4088 19.3347 17.0324 18.8999C17.3848 18.6553 18.0355 18.2205 17.9949 17.3645C17.9406 16.3997 15.8123 13.4783 14.9176 13.1522C14.538 13.0163 14.1313 13.0163 13.7246 13.1522C12.6943 13.5055 11.9487 14.1169 11.5827 14.9186C11.2302 15.6931 11.2438 16.6171 11.6234 17.5683C12.7485 20.3266 14.3211 22.7317 16.3003 24.7155C18.2389 26.6586 20.6384 28.2484 23.4039 29.4441C23.6479 29.5528 23.919 29.6072 24.1088 29.648C24.1766 29.6615 24.2308 29.6751 24.2715 29.6887C24.2986 29.6887 24.3122 29.7023 24.3393 29.7023H24.3664C25.6678 29.7023 27.2268 28.5066 27.7148 27.1478C28.1486 25.9656 27.3759 25.3813 26.7523 24.9058Z" fill="white"/>
<path d="M21.2336 16.7387C21.0167 16.7387 20.5423 16.7523 20.3796 17.2279C20.2982 17.4453 20.3118 17.6355 20.4067 17.7986C20.5423 18.0296 20.8134 18.0975 21.0574 18.1383C21.925 18.2741 22.3859 18.7633 22.4673 19.6601C22.5079 20.0813 22.7926 20.3667 23.1586 20.3667C23.1858 20.3667 23.2129 20.3667 23.24 20.3667C23.6738 20.3123 23.8907 19.9998 23.8636 19.4155C23.8771 18.8041 23.5518 18.1247 23.0231 17.5812C22.4808 17.0376 21.8301 16.7251 21.2336 16.7387Z" fill="white"/>
</svg>
