<svg width="64" height="20" viewBox="0 0 64 20" fill="none" xmlns="http://www.w3.org/2000/svg">
<path d="M41.6751 0C37.1354 0 33.0785 2.37796 33.0785 6.77141C33.0785 11.8099 40.2736 12.1579 40.2736 14.6891C40.2736 15.7548 39.065 16.7089 37.0008 16.7089C34.0713 16.7089 31.8818 15.3758 31.8818 15.3758L30.945 19.8093C30.945 19.8093 33.4672 20.9353 36.8159 20.9353C41.7793 20.9353 45.6848 18.4406 45.6848 13.972C45.6848 8.64799 38.4598 8.31032 38.4598 5.96096C38.4598 5.12608 39.4519 4.2113 41.5102 4.2113C43.8326 4.2113 45.7273 5.18081 45.7273 5.18081L46.6442 0.898815C46.6442 0.898815 44.5825 0 41.6751 0ZM0.141174 0.32317L0.03125 0.969509C0.03125 0.969509 1.94111 1.32275 3.66125 2.02738C5.87608 2.83539 6.03385 3.30577 6.40686 4.76675L10.4716 20.6021H15.9203L24.3145 0.32317H18.8783L13.4845 14.1109L11.2835 2.42377C11.0817 1.08619 10.0592 0.32317 8.80771 0.32317H0.141174ZM26.5005 0.32317L22.236 20.6021H27.4199L31.6695 0.32317H26.5005ZM55.4131 0.32317C54.1631 0.32317 53.5008 0.999509 53.0148 2.18139L45.42 20.6021H50.8563L51.908 17.5319H58.531L59.1705 20.6021H63.9672L59.7826 0.32317H55.4131ZM56.1201 5.8019L57.7315 13.4115H53.4145L56.1201 5.8019Z" fill="#1434CB"/>
</svg>
