<svg width="40" height="40" viewBox="0 0 40 40" fill="none" xmlns="http://www.w3.org/2000/svg">
<path d="M20.005 0H19.995C8.9675 0 0 8.97 0 20C0 24.375 1.41 28.43 3.8075 31.7225L1.315 39.1525L9.0025 36.695C12.165 38.79 15.9375 40 20.005 40C31.0325 40 40 31.0275 40 20C40 8.9725 31.0325 0 20.005 0Z" fill="#4CAF50"/>
<path d="M29.7731 27.2308C29.363 28.3889 27.7352 29.3494 26.4369 29.6299C25.5486 29.819 24.3884 29.9699 20.4826 28.3506C15.4867 26.2809 12.2695 21.2043 12.0187 20.8749C11.7786 20.5455 10 18.1868 10 15.7473C10 13.3078 11.2389 12.1199 11.7383 11.6099C12.1484 11.1913 12.8262 11 13.4765 11C13.6869 11 13.876 11.0106 14.046 11.0191C14.5454 11.0404 14.7961 11.0701 15.1255 11.8585C15.5356 12.8466 16.5344 15.2861 16.6534 15.5369C16.7745 15.7876 16.8956 16.1276 16.7256 16.457C16.5662 16.797 16.426 16.9479 16.1752 17.2369C15.9245 17.5259 15.6865 17.7469 15.4357 18.0571C15.2062 18.327 14.947 18.616 15.236 19.1154C15.525 19.6041 16.5237 21.234 17.9942 22.543C19.8919 24.2324 21.4304 24.7721 21.9807 25.0016C22.3909 25.1716 22.8796 25.1313 23.1792 24.8125C23.5596 24.4024 24.0292 23.7224 24.5074 23.053C24.8474 22.5728 25.2766 22.5133 25.7271 22.6833C26.1861 22.8426 28.615 24.0433 29.1144 24.2919C29.6137 24.5426 29.9431 24.6616 30.0642 24.872C30.1832 25.0824 30.1832 26.0705 29.7731 27.2308Z" fill="#FAFAFA"/>
</svg>
